<?xml version="1.0" standalone="no"?><!-- Generator: Gravit.io --><svg xmlns="http://www.w3.org/2000/svg" xmlns:xlink="http://www.w3.org/1999/xlink" style="isolation:isolate" viewBox="0 0 500 700" width="500" height="700"><defs><clipPath id="_clipPath_t0JCf3GBDY817Zrc4qqUDggr3Tl5aaCn"><rect width="500" height="700"/></clipPath></defs><g clip-path="url(#_clipPath_t0JCf3GBDY817Zrc4qqUDggr3Tl5aaCn)"><clipPath id="_clipPath_C367C2PXG2JJUltc11FAyYko5sXz9xJ8"><rect x="0" y="0" width="500" height="700" transform="matrix(1,0,0,1,0,0)" fill="rgb(255,255,255)"/></clipPath><g clip-path="url(#_clipPath_C367C2PXG2JJUltc11FAyYko5sXz9xJ8)"><g id="Group"><g id="Logo"><path d=" M 0 452.941 C 0 589.235 112.083 700 250 700 C 387.917 700 500 589.235 500 452.941 C 500 267.647 250 0 250 0 C 250 0 0 267.647 0 452.941 Z " fill="rgb(255,0,51)"/><path d=" M 90.884 457.078 C 90.884 543.825 162.221 614.322 250 614.322 C 337.779 614.322 409.116 543.825 409.116 457.078 C 409.116 339.145 250 168.798 250 168.798 C 250 168.798 90.884 339.145 90.884 457.078 Z " fill="rgb(255,102,0)"/><path d=" M 176.471 452.527 C 176.471 492.614 209.436 525.192 250 525.192 C 290.564 525.192 323.529 492.614 323.529 452.527 C 323.529 398.029 250 319.309 250 319.309 C 250 319.309 176.471 398.029 176.471 452.527 Z " fill="rgb(255,204,0)"/></g></g></g></g></svg>